<svg xmlns="http://www.w3.org/2000/svg" xmlns:xlink="http://www.w3.org/1999/xlink" width="113px" height="77px" viewBox="0 0 113 77"><title>logo-footer</title><g id="Page-1" stroke="none" stroke-width="1" fill="none" fill-rule="evenodd"><g id="IT-Services" transform="translate(-1045.000000, -7409.000000)" fill="#FFFFFF"><g id="Footer" transform="translate(0.000000, 7156.000000)"><g id="Group-34" transform="translate(851.000000, 79.000000)"><g id="logo-footer" transform="translate(194.418945, 174.000000)"><path d="M36.5815473,10.0557758 L46.6597101,0 L59.7810547,0 C58.3879745,0.673182914 57.094544,1.56611688 55.9671661,2.69099044 L39.4214029,19.2 C37.5826065,16.9624414 36.5810547,14.1843899 36.5810547,11.2524413 L36.5815473,10.0557758 Z M47.7425508,39.9995073 L46.6368307,39.9995073 L36.5810547,29.9213451 L36.5810547,16.8 C37.2542376,18.1948253 38.1471715,19.4865108 39.2720455,20.6138887 L55.7810547,37.1596525 C53.5434962,39.0001932 50.7654447,40 47.8334961,40 L47.7425508,39.9995073 Z M76.5805625,29.9442246 L66.5023995,40 L53.3810547,40 C54.7741349,39.3268171 56.0675655,38.4338831 57.1949433,37.3090103 L73.7407068,20.8 C75.5795028,23.0375587 76.5810547,25.8156103 76.5810547,28.7475591 L76.5805625,29.9442246 Z M73.8902946,19.3865227 L57.3810547,2.84040812 C59.6186445,0.999827955 62.3967347,0 65.3287243,0 L66.5251386,0 L76.5810547,10.0783768 L76.5810547,23.2 C75.9078624,21.8051451 75.014916,20.5134322 73.8900267,19.3860304 L73.8902946,19.3865227 Z" id="Fill-1"></path><g id="Tecnologia" transform="translate(0.000000, 55.091797)" fill-rule="nonzero"><polygon id="Path" points="0 3.6953125 0 0.90234375 13.1484375 0.90234375 13.1484375 3.6953125 8.25 3.6953125 8.25 16.9082031 4.90917969 16.9082031 4.90917969 3.6953125"></polygon><path d="M20.0126953,17.1445312 C18.7809245,17.1445312 17.7174479,16.8938802 16.8222656,16.3925781 C15.9270833,15.891276 15.2413737,15.1769206 14.7651367,14.2495117 C14.2888997,13.3221029 14.0507812,12.2246094 14.0507812,10.9570312 C14.0507812,9.72526042 14.2888997,8.64388021 14.7651367,7.71289062 C15.2413737,6.78190104 15.9145508,6.05501302 16.784668,5.53222656 C17.6547852,5.0094401 18.6770833,4.74804688 19.8515625,4.74804688 C20.6464844,4.74804688 21.3876953,4.87516276 22.0751953,5.12939453 C22.7626953,5.3836263 23.3642578,5.76318359 23.8798828,6.26806641 C24.3955078,6.77294922 24.7965495,7.40673828 25.0830078,8.16943359 C25.3694661,8.93212891 25.5126953,9.82552083 25.5126953,10.8496094 L25.5126953,11.7519531 L15.3720703,11.7519531 L15.3720703,9.70019531 L23.9013672,9.70019531 L22.3544922,10.2373047 C22.3544922,9.62858073 22.2613932,9.09863281 22.0751953,8.64746094 C21.8889974,8.19628906 21.6114909,7.84716797 21.2426758,7.60009766 C20.8738607,7.35302734 20.4173177,7.22949219 19.8730469,7.22949219 C19.328776,7.22949219 18.8686523,7.35481771 18.4926758,7.60546875 C18.1166992,7.85611979 17.8284505,8.19628906 17.6279297,8.62597656 C17.4274089,9.05566406 17.3271484,9.54980469 17.3271484,10.1083984 L17.3271484,11.5585938 C17.3271484,12.2102865 17.4417318,12.7670898 17.6708984,13.2290039 C17.9000651,13.690918 18.2205404,14.0454102 18.6323242,14.2924805 C19.0441081,14.5395508 19.5185547,14.6630859 20.0556641,14.6630859 C20.4280599,14.6630859 20.7646484,14.609375 21.0654297,14.5019531 C21.3662109,14.3945312 21.6258138,14.2369792 21.8442383,14.0292969 C22.0626628,13.8216146 22.2255859,13.5709635 22.3330078,13.2773438 L25.4052734,13.4814453 C25.2548828,14.2190755 24.941569,14.8618164 24.465332,15.409668 C23.9890951,15.9575195 23.375,16.3836263 22.6230469,16.6879883 C21.8710938,16.9923503 21.0009766,17.1445312 20.0126953,17.1445312 Z" id="Path"></path><path d="M32.3339844,17.1445312 C31.109375,17.1445312 30.0566406,16.8813477 29.1757812,16.3549805 C28.2949219,15.8286133 27.6181641,15.1017253 27.1455078,14.1743164 C26.6728516,13.2469076 26.4365234,12.1744792 26.4365234,10.9570312 C26.4365234,9.72526042 26.6746419,8.64388021 27.1508789,7.71289062 C27.6271159,6.78190104 28.3056641,6.05501302 29.1865234,5.53222656 C30.0673828,5.0094401 31.1165365,4.74804688 32.3339844,4.74804688 C33.3795573,4.74804688 34.2944336,4.93782552 35.0786133,5.31738281 C35.862793,5.6969401 36.4840495,6.23046875 36.9423828,6.91796875 C37.4007161,7.60546875 37.6513672,8.41471354 37.6943359,9.34570312 L34.5576172,9.34570312 C34.5003255,8.94466146 34.3785807,8.59375 34.1923828,8.29296875 C34.0061849,7.9921875 33.7591146,7.7594401 33.4511719,7.59472656 C33.1432292,7.43001302 32.7851562,7.34765625 32.3769531,7.34765625 C31.8613281,7.34765625 31.4119466,7.48551432 31.0288086,7.76123047 C30.6456706,8.03694661 30.3484701,8.44156901 30.137207,8.97509766 C29.925944,9.5086263 29.8203125,10.1549479 29.8203125,10.9140625 C29.8203125,11.6731771 29.925944,12.3248698 30.137207,12.8691406 C30.3484701,13.4134115 30.6456706,13.828776 31.0288086,14.1152344 C31.4119466,14.4016927 31.8613281,14.5449219 32.3769531,14.5449219 C32.9498698,14.5449219 33.4332682,14.3640951 33.8271484,14.0024414 C34.2210286,13.6407878 34.4645182,13.141276 34.5576172,12.5039062 L37.6943359,12.5039062 C37.6442057,13.4205729 37.3971354,14.2280273 36.953125,14.9262695 C36.5091146,15.6245117 35.8968099,16.1687826 35.1162109,16.559082 C34.335612,16.9493815 33.4082031,17.1445312 32.3339844,17.1445312 Z" id="Path"></path><path d="M42.453125,9.96875 L42.453125,16.9082031 L39.1337891,16.9082031 L39.1337891,4.8984375 L42.3994141,4.8984375 L42.3994141,7.03613281 L42.5175781,7.03613281 C42.7897135,6.32714844 43.2229818,5.76855469 43.8173828,5.36035156 C44.4117839,4.95214844 45.1565755,4.74804688 46.0517578,4.74804688 C46.882487,4.74804688 47.6075846,4.93066406 48.2270508,5.29589844 C48.8465169,5.66113281 49.328125,6.18033854 49.671875,6.85351562 C50.015625,7.52669271 50.1875,8.33235677 50.1875,9.27050781 L50.1875,16.9082031 L46.8681641,16.9082031 L46.8681641,9.86132812 C46.8681641,9.13085938 46.6783854,8.55615234 46.2988281,8.13720703 C45.9192708,7.71826172 45.3964844,7.50878906 44.7304688,7.50878906 C44.2864583,7.50878906 43.8925781,7.60725911 43.5488281,7.80419922 C43.2050781,8.00113932 42.9365234,8.28222656 42.7431641,8.64746094 C42.5498047,9.01269531 42.453125,9.453125 42.453125,9.96875 Z" id="Path"></path><path d="M57.5458984,17.1445312 C56.335612,17.1445312 55.2882487,16.8849284 54.4038086,16.3657227 C53.5193685,15.8465169 52.8390299,15.1232096 52.362793,14.1958008 C51.886556,13.2683919 51.6484375,12.1888021 51.6484375,10.9570312 C51.6484375,9.7109375 51.886556,8.6241862 52.362793,7.69677734 C52.8390299,6.76936849 53.5193685,6.0460612 54.4038086,5.52685547 C55.2882487,5.00764974 56.335612,4.74804688 57.5458984,4.74804688 C58.7633464,4.74804688 59.8142904,5.00764974 60.6987305,5.52685547 C61.5831706,6.0460612 62.2635091,6.76936849 62.7397461,7.69677734 C63.2159831,8.6241862 63.4541016,9.7109375 63.4541016,10.9570312 C63.4541016,12.1888021 63.2159831,13.2683919 62.7397461,14.1958008 C62.2635091,15.1232096 61.5831706,15.8465169 60.6987305,16.3657227 C59.8142904,16.8849284 58.7633464,17.1445312 57.5458984,17.1445312 Z M57.5673828,14.5449219 C58.1188151,14.5449219 58.5807292,14.3891602 58.953125,14.0776367 C59.3255208,13.7661133 59.6066081,13.3382161 59.7963867,12.7939453 C59.9861654,12.2496745 60.0810547,11.6302083 60.0810547,10.9355469 C60.0810547,10.233724 59.9861654,9.61425781 59.7963867,9.07714844 C59.6066081,8.54003906 59.3255208,8.11751302 58.953125,7.80957031 C58.5807292,7.5016276 58.1188151,7.34765625 57.5673828,7.34765625 C57.0087891,7.34765625 56.5415039,7.5016276 56.1655273,7.80957031 C55.7895508,8.11751302 55.5066732,8.54003906 55.3168945,9.07714844 C55.1271159,9.61425781 55.0322266,10.233724 55.0322266,10.9355469 C55.0322266,11.6302083 55.1271159,12.2496745 55.3168945,12.7939453 C55.5066732,13.3382161 55.7895508,13.7661133 56.1655273,14.0776367 C56.5415039,14.3891602 57.0087891,14.5449219 57.5673828,14.5449219 Z" id="Shape"></path><polygon id="Path" points="68.2451172 0.90234375 68.2451172 16.9082031 64.9257812 16.9082031 64.9257812 0.90234375"></polygon><path d="M75.6035156,17.1445312 C74.3932292,17.1445312 73.3458659,16.8849284 72.4614258,16.3657227 C71.5769857,15.8465169 70.8966471,15.1232096 70.4204102,14.1958008 C69.9441732,13.2683919 69.7060547,12.1888021 69.7060547,10.9570312 C69.7060547,9.7109375 69.9441732,8.6241862 70.4204102,7.69677734 C70.8966471,6.76936849 71.5769857,6.0460612 72.4614258,5.52685547 C73.3458659,5.00764974 74.3932292,4.74804688 75.6035156,4.74804688 C76.8209635,4.74804688 77.8719076,5.00764974 78.7563477,5.52685547 C79.6407878,6.0460612 80.3211263,6.76936849 80.7973633,7.69677734 C81.2736003,8.6241862 81.5117188,9.7109375 81.5117188,10.9570312 C81.5117188,12.1888021 81.2736003,13.2683919 80.7973633,14.1958008 C80.3211263,15.1232096 79.6407878,15.8465169 78.7563477,16.3657227 C77.8719076,16.8849284 76.8209635,17.1445312 75.6035156,17.1445312 Z M75.625,14.5449219 C76.1764323,14.5449219 76.6383464,14.3891602 77.0107422,14.0776367 C77.383138,13.7661133 77.6642253,13.3382161 77.8540039,12.7939453 C78.0437826,12.2496745 78.1386719,11.6302083 78.1386719,10.9355469 C78.1386719,10.233724 78.0437826,9.61425781 77.8540039,9.07714844 C77.6642253,8.54003906 77.383138,8.11751302 77.0107422,7.80957031 C76.6383464,7.5016276 76.1764323,7.34765625 75.625,7.34765625 C75.0664062,7.34765625 74.5991211,7.5016276 74.2231445,7.80957031 C73.847168,8.11751302 73.5642904,8.54003906 73.3745117,9.07714844 C73.1847331,9.61425781 73.0898438,10.233724 73.0898438,10.9355469 C73.0898438,11.6302083 73.1847331,12.2496745 73.3745117,12.7939453 C73.5642904,13.3382161 73.847168,13.7661133 74.2231445,14.0776367 C74.5991211,14.3891602 75.0664062,14.5449219 75.625,14.5449219 Z" id="Shape"></path><path d="M88.3544922,21.65625 C86.7360026,21.65625 85.4684245,21.3357747 84.5517578,20.6948242 C83.6350911,20.0538737 83.0764974,19.2571615 82.8759766,18.3046875 L85.9482422,17.8964844 C86.0413411,18.139974 86.188151,18.3655599 86.3886719,18.5732422 C86.5891927,18.7809245 86.8577474,18.9474284 87.1943359,19.0727539 C87.5309245,19.1980794 87.9427083,19.2607422 88.4296875,19.2607422 C89.1529948,19.2607422 89.7509766,19.0870768 90.2236328,18.7397461 C90.6962891,18.3924154 90.9326172,17.8069661 90.9326172,16.9833984 L90.9326172,14.78125 L90.7929688,14.78125 C90.6497396,15.1106771 90.4313151,15.4257812 90.1376953,15.7265625 C89.8440755,16.0273438 89.468099,16.2708333 89.0097656,16.4570312 C88.5514323,16.6432292 88.0035807,16.7363281 87.3662109,16.7363281 C86.4638672,16.7363281 85.6456706,16.5268555 84.9116211,16.1079102 C84.1775716,15.6889648 83.590332,15.046224 83.1499023,14.1796875 C82.7094727,13.313151 82.4892578,12.2174479 82.4892578,10.8925781 C82.4892578,9.52473958 82.7130534,8.38606771 83.1606445,7.4765625 C83.6082357,6.56705729 84.2008464,5.88492839 84.9384766,5.43017578 C85.6761068,4.97542318 86.4853516,4.74804688 87.3662109,4.74804688 C88.039388,4.74804688 88.6033529,4.86083984 89.0581055,5.08642578 C89.5128581,5.31201172 89.8834635,5.59309896 90.1699219,5.9296875 C90.4563802,6.26627604 90.671224,6.59928385 90.8144531,6.92871094 L90.9433594,6.92871094 L90.9433594,4.8984375 L94.2197266,4.8984375 L94.2197266,17.0371094 C94.2197266,18.0540365 93.9690755,18.90625 93.4677734,19.59375 C92.9664714,20.28125 92.2753906,20.796875 91.3945312,21.140625 C90.5136719,21.484375 89.5003255,21.65625 88.3544922,21.65625 Z M88.4189453,14.2333984 C89.2210286,14.2333984 89.8422852,13.9361979 90.2827148,13.3417969 C90.7231445,12.7473958 90.9433594,11.9238281 90.9433594,10.8710938 C90.9433594,10.1692708 90.8448893,9.55875651 90.6479492,9.03955078 C90.4510091,8.52034505 90.1663411,8.11572266 89.7939453,7.82568359 C89.4215495,7.53564453 88.9632161,7.390625 88.4189453,7.390625 C87.8746745,7.390625 87.4145508,7.53922526 87.0385742,7.83642578 C86.6625977,8.1336263 86.3779297,8.54361979 86.1845703,9.06640625 C85.9912109,9.58919271 85.8945312,10.1907552 85.8945312,10.8710938 C85.8945312,11.5585938 85.9912109,12.1547852 86.1845703,12.659668 C86.3779297,13.1645508 86.6625977,13.5530599 87.0385742,13.8251953 C87.4145508,14.0973307 87.8746745,14.2333984 88.4189453,14.2333984 Z" id="Shape"></path><path d="M96.1748047,16.9082031 L96.1748047,4.8984375 L99.4941406,4.8984375 L99.4941406,16.9082031 L96.1748047,16.9082031 Z M97.8291016,3.36230469 C97.3349609,3.36230469 96.9124349,3.19759115 96.5615234,2.86816406 C96.210612,2.53873698 96.0351562,2.14127604 96.0351562,1.67578125 C96.0351562,1.21028646 96.210612,0.814615885 96.5615234,0.488769531 C96.9124349,0.162923177 97.3349609,0 97.8291016,0 C98.3304036,0 98.7565104,0.162923177 99.1074219,0.488769531 C99.4583333,0.814615885 99.6337891,1.21028646 99.6337891,1.67578125 C99.6337891,2.14127604 99.4583333,2.53873698 99.1074219,2.86816406 C98.7565104,3.19759115 98.3304036,3.36230469 97.8291016,3.36230469 Z" id="Shape"></path><path d="M104.865234,17.1337891 C104.10612,17.1337891 103.423991,16.9995117 102.818848,16.730957 C102.213704,16.4624023 101.739258,16.063151 101.395508,15.5332031 C101.051758,15.0032552 100.879883,14.344401 100.879883,13.5566406 C100.879883,12.8834635 101.001628,12.3230794 101.245117,11.8754883 C101.488607,11.4278971 101.821615,11.0644531 102.244141,10.7851562 C102.666667,10.5058594 103.146484,10.2945964 103.683594,10.1513672 C104.220703,10.008138 104.790039,9.9078776 105.391602,9.85058594 C106.086263,9.78613281 106.644857,9.72167969 107.067383,9.65722656 C107.489909,9.59277344 107.799642,9.49430339 107.996582,9.36181641 C108.193522,9.22932943 108.291992,9.03776042 108.291992,8.78710938 L108.291992,8.73339844 C108.291992,8.23925781 108.13623,7.85611979 107.824707,7.58398438 C107.513184,7.31184896 107.074544,7.17578125 106.508789,7.17578125 C105.914388,7.17578125 105.439941,7.30647786 105.085449,7.56787109 C104.730957,7.82926432 104.496419,8.16048177 104.381836,8.56152344 L101.298828,8.31445312 C101.45638,7.58398438 101.764323,6.95198568 102.222656,6.41845703 C102.68099,5.88492839 103.2736,5.47314453 104.000488,5.18310547 C104.727376,4.89306641 105.570638,4.74804688 106.530273,4.74804688 C107.196289,4.74804688 107.833659,4.82682292 108.442383,4.984375 C109.051107,5.14192708 109.593587,5.3836263 110.069824,5.70947266 C110.546061,6.03531901 110.923828,6.45605469 111.203125,6.97167969 C111.482422,7.48730469 111.62207,8.09960938 111.62207,8.80859375 L111.62207,16.9082031 L108.453125,16.9082031 L108.453125,15.2324219 L108.367188,15.2324219 C108.173828,15.6119792 107.916016,15.9431966 107.59375,16.2260742 C107.271484,16.5089518 106.884766,16.730957 106.433594,16.8920898 C105.982422,17.0532227 105.459635,17.1337891 104.865234,17.1337891 Z M105.821289,14.8349609 C106.308268,14.8349609 106.739746,14.7364909 107.115723,14.5395508 C107.491699,14.3426107 107.785319,14.0776367 107.996582,13.7446289 C108.207845,13.4116211 108.313477,13.0374349 108.313477,12.6220703 L108.313477,11.34375 C108.213216,11.4082031 108.071777,11.4690755 107.88916,11.5263672 C107.706543,11.5836589 107.504232,11.6337891 107.282227,11.6767578 C107.060221,11.7197266 106.838216,11.7573242 106.616211,11.7895508 C106.394206,11.8217773 106.193685,11.8522135 106.014648,11.8808594 C105.620768,11.938151 105.277018,12.0294596 104.983398,12.1547852 C104.689779,12.2801107 104.462402,12.4484049 104.30127,12.659668 C104.140137,12.870931 104.05957,13.1341146 104.05957,13.4492188 C104.05957,13.9003906 104.224284,14.2441406 104.553711,14.4804688 C104.883138,14.7167969 105.305664,14.8349609 105.821289,14.8349609 Z" id="Shape"></path></g></g></g></g></g></g></svg>