<svg xmlns="http://www.w3.org/2000/svg" xmlns:xlink="http://www.w3.org/1999/xlink" width="54px" height="54px" viewBox="0 0 54 54"><title>logo R</title><g id="Page-1" stroke="none" stroke-width="1" fill="none" fill-rule="evenodd"><g id="Testimonials" transform="translate(-328.000000, -769.000000)"><g id="logo-R" transform="translate(328.000000, 769.000000)"><rect id="Rectangle" fill="#010ED0" x="0" y="0" width="54" height="54"></rect><g id="R" transform="translate(20.368000, 15.976000)" fill="#FFFFFF" fill-rule="nonzero"><path d="M17.248,20 C17.3333333,20.1493333 17.376,20.2986667 17.376,20.448 C17.376,20.6186667 17.3226667,20.7573333 17.216,20.864 C17.1093333,20.9706667 16.96,21.024 16.768,21.024 L12.992,21.024 C12.6293333,21.024 12.3306667,20.9493333 12.096,20.8 C11.8613333,20.6506667 11.6266667,20.4053333 11.392,20.064 L7.936,14.912 C7.78666667,14.72 7.69066667,14.512 7.648,14.288 C7.60533333,14.064 7.584,13.728 7.584,13.28 L7.584,10.72 C7.584,10.4 7.65333333,10.1653333 7.792,10.016 C7.93066667,9.86666667 8.17066667,9.792 8.512,9.792 L9.152,9.792 C9.96266667,9.792 10.672,9.54133333 11.28,9.04 C11.888,8.53866667 12.192,7.92533333 12.192,7.2 C12.192,6.38933333 11.9146667,5.73333333 11.36,5.232 C10.8053333,4.73066667 10.1013333,4.48 9.248,4.48 L4.992,4.48 L4.992,20.096 C4.992,20.4373333 4.91733333,20.6773333 4.768,20.816 C4.61866667,20.9546667 4.384,21.024 4.064,21.024 L0.896,21.024 C0.597333333,21.024 0.373333333,20.9546667 0.224,20.816 C0.0746666667,20.6773333 0,20.4373333 0,20.096 L0,0.928 C0,0.608 0.064,0.373333333 0.192,0.224 C0.32,0.0746666667 0.554666667,0 0.896,0 L8.96,0 C10.624,0 11.92,0.16 12.848,0.48 C13.776,0.8 14.6026667,1.32266667 15.328,2.048 C15.9253333,2.624 16.384,3.34933333 16.704,4.224 C17.024,5.09866667 17.184,6.048 17.184,7.072 C17.184,8.11733333 16.96,9.08266667 16.512,9.968 C16.064,10.8533333 15.4986667,11.5946667 14.816,12.192 C14.1333333,12.7893333 13.44,13.2053333 12.736,13.44 L17.248,20 Z" id="Path"></path></g></g></g></g></svg>